<svg width="24" height="24" viewBox="0 0 24 24" fill="none" xmlns="http://www.w3.org/2000/svg">
<g clip-path="url(#clip0_204_6067)">
<path d="M4.20639 11.6464L3.85283 12L4.20639 12.3535L9.74639 17.8935C9.84113 17.9883 9.84113 18.1517 9.74639 18.2464L9.74029 18.2525L9.73441 18.2588C9.70417 18.2912 9.6453 18.32 9.56994 18.32C9.50539 18.32 9.44478 18.2977 9.39349 18.2464L3.32349 12.1764C3.22876 12.0817 3.22876 11.9183 3.32349 11.8235L9.39349 5.75355C9.48823 5.65881 9.65165 5.65881 9.74639 5.75355C9.84113 5.84829 9.84113 6.0117 9.74639 6.10644L4.20639 11.6464Z" fill="#292D32" stroke="#313235"/>
<path d="M20.5 12.75H3.67004C3.26004 12.75 2.92004 12.41 2.92004 12C2.92004 11.59 3.26004 11.25 3.67004 11.25H20.5C20.91 11.25 21.25 11.59 21.25 12C21.25 12.41 20.91 12.75 20.5 12.75Z" fill="#292D32"/>
</g>
<defs>
<clipPath id="clip0_204_6067">
<path d="M0 8C0 3.58172 3.58172 0 8 0H16C20.4183 0 24 3.58172 24 8V16C24 20.4183 20.4183 24 16 24H8C3.58172 24 0 20.4183 0 16V8Z" fill="white"/>
</clipPath>
</defs>
</svg>
