<svg width="25" height="24" viewBox="0 0 25 24" fill="none" xmlns="http://www.w3.org/2000/svg">
<path d="M12 21.25C6.62614 21.25 2.25 16.8739 2.25 11.5C2.25 6.12614 6.62614 1.75 12 1.75C17.3739 1.75 21.75 6.12614 21.75 11.5C21.75 16.8739 17.3739 21.25 12 21.25ZM12 2.25C6.89349 2.25 2.75 6.40423 2.75 11.5C2.75 16.5958 6.89349 20.75 12 20.75C17.1065 20.75 21.25 16.5958 21.25 11.5C21.25 6.40423 17.1065 2.25 12 2.25Z" fill="#F9F5FF" stroke="#F9F5FF"/>
<path d="M22.4999 22.75C22.3099 22.75 22.1199 22.68 21.9699 22.53L19.9699 20.53C19.6799 20.24 19.6799 19.76 19.9699 19.47C20.2599 19.18 20.7399 19.18 21.0299 19.47L23.0299 21.47C23.3199 21.76 23.3199 22.24 23.0299 22.53C22.8799 22.68 22.6899 22.75 22.4999 22.75Z" fill="#F9F5FF"/>
</svg>
